<svg height="511pt" viewBox="-8 0 511 511.97439" width="511pt" xmlns="http://www.w3.org/2000/svg"><path d="m375.941406 358.375c0 42.667969-34.132812 51.199219-59.734375 68.265625-30.121093 20.054687-8.53125 76.800781-68.265625 76.800781-4.292968.058594-8.582031-.3125-12.800781-1.109375-43.863281-7.679687-27.734375-57.257812-55.464844-75.691406-25.601562-17.066406-59.734375-25.597656-59.734375-68.265625s17.066406-59.734375 17.066406-110.933594v-9.214844c-.042968-23 15.523438-43.097656 37.800782-48.8125 4.144531-1.140624 8.421875-1.714843 12.714844-1.707031 11.480468 0 22.617187 3.914063 31.574218 11.09375l16.042969 12.800781 12.800781 10.238282 28.839844-23.039063c5.492188-4.421875 11.863281-7.625 18.691406-9.386719 15.148438-4.046874 31.320313-.808593 43.746094 8.757813s19.691406 24.371094 19.65625 40.054687v9.214844c0 51.199219 17.066406 68.265625 17.066406 110.933594zm0 0" fill="#cab596"/><path d="m350.339844 358.375c0 42.667969-34.132813 51.199219-59.734375 68.265625-27.730469 18.433594-11.605469 68.011719-55.464844 75.691406-43.863281-7.679687-27.734375-57.257812-55.464844-75.691406-25.601562-17.066406-59.734375-25.597656-59.734375-68.265625s17.066406-59.734375 17.066406-110.933594v-9.214844c-.042968-23 15.523438-43.097656 37.800782-48.8125 6.742187 1.707032 24.917968-6.144531 30.464844-1.707031l17.066406 25.601563 12.800781-1.707032 12.800781 10.238282 28.839844-23.039063c5.492188-4.421875 11.863281-7.625 18.691406-9.386719 8.71875 2.1875 16.683594 6.699219 23.039063 13.054688 9.484375 9.476562 14.796875 22.347656 14.761719 35.757812v9.214844c0 51.199219 17.066406 68.265625 17.066406 110.933594zm0 0" fill="#ffe4be"/><path d="m247.941406 435.175781c17.066406 0 34.132813-8.535156 34.132813-25.601562 0-42.667969 51.199219-76.800781 51.199219-76.800781-27.308594 10.363281-56.140626 16.128906-85.332032 17.066406-29.191406-.9375-58.027344-6.703125-85.335937-17.066406 0 0 51.203125 34.132812 51.203125 76.800781 0 17.066406 17.066406 25.601562 34.132812 25.601562zm0 0" fill="#bc2b6a"/><path d="m111.40625 136.507812c-128 0-76.800781 162.132813-76.800781 162.132813s17.070312-59.734375 51.203125-59.734375c27 0 37.988281 10.710938 49.839844 27.847656.910156-6.398437 1.363281-12.851562 1.359374-19.3125v-9.199218c-.125-16.050782 7.441407-31.191407 20.351563-40.726563s29.605469-12.316406 44.910156-7.476563c-18.539062-32.808593-53.183593-53.21875-90.863281-53.53125zm0 0" fill="#f85b44"/><path d="m60.207031 324.242188c0 14.136718-11.460937 25.597656-25.601562 25.597656-14.136719 0-25.597657-11.460938-25.597657-25.597656 0-14.140626 11.460938-25.601563 25.597657-25.601563 14.140625 0 25.601562 11.460937 25.601562 25.601563zm0 0" fill="#728f9c"/><path d="m461.273438 298.640625c-4.265626-14.03125-10.65625-27.324219-18.945313-39.421875-6.847656-11.574219-18.855469-19.136719-32.253906-20.3125-5.71875-.097656-11.425781.53125-16.980469 1.878906-13.996094 3.871094-25.839844 13.226563-32.855469 25.941406-.921875-6.386718-1.378906-12.832031-1.363281-19.285156v-9.214844c0-13.398437-5.320312-26.25-14.792969-35.726562-9.476562-9.472656-22.328125-14.792969-35.726562-14.792969-4.5625.007813-9.105469.667969-13.480469 1.964844-.4375.070313-.867188.1875-1.28125.339844.085938-.171875.257812-.425781.339844-.597657 16.453125-28.316406 44.976562-47.527343 77.398437-52.136718h.085938c4.332031-.523438 8.691406-.777344 13.054687-.769532 128 0 76.800782 162.132813 76.800782 162.132813zm0 0" fill="#d13d34"/><path d="m442.328125 259.21875c-6.847656-11.574219-18.855469-19.136719-32.253906-20.3125-5.71875-.097656-11.425781.53125-16.980469 1.878906-3.277344-1.230468-6.742188-1.863281-10.242188-1.878906-8.183593-.234375-16.335937 1.15625-23.976562 4.097656v-4.777344c0-13.398437-5.320312-26.25-14.792969-35.726562-9.476562-9.472656-22.328125-14.792969-35.726562-14.792969-4.5625.007813-9.105469.667969-13.480469 1.964844-.289062-.164063-.609375-.253906-.941406-.257813 16.453125-28.316406 44.976562-47.527343 77.398437-52.136718h.085938c73.214843 7.765625 76.714843 76.714844 70.910156 121.941406zm0 0" fill="#f85b44"/><path d="m486.875 324.242188c0 14.136718-11.460938 25.597656-25.601562 25.597656-14.136719 0-25.597657-11.460938-25.597657-25.597656 0-14.140626 11.460938-25.601563 25.597657-25.601563 14.140624 0 25.601562 11.460937 25.601562 25.601563zm0 0" fill="#475962"/><path d="m461.273438 324.242188c.007812 9.152343-4.875 17.609374-12.800782 22.183593-7.933594-4.566406-12.828125-13.027343-12.828125-22.183593 0-9.160157 4.894531-17.617188 12.828125-22.1875 7.925782 4.574218 12.808594 13.035156 12.800782 22.1875zm0 0" fill="#728f9c"/><path d="m299.140625 34.109375c0 14.136719-11.460937 25.597656-25.601563 25.597656-14.136718 0-25.597656-11.460937-25.597656-25.597656 0-14.140625 11.460938-25.601563 25.597656-25.601563 14.140626 0 25.601563 11.460938 25.601563 25.601563zm0 0" fill="#f85b44"/><path d="m313.058594 165.691406c-118.621094-24.355468-65.117188-131.582031-65.117188-131.582031s-93.867187 25.597656-93.867187 93.863281c.003906 6.125.421875 12.238282 1.246093 18.304688 19.464844 9.863281 35.734376 25.035156 46.933594 43.761718 6.125 1.824219 11.847656 4.796876 16.859375 8.761719l28.828125 23.039063 28.824219-23.039063c5.011719-3.957031 10.726563-6.925781 16.84375-8.746093 5.480469-8.875 12.011719-17.054688 19.449219-24.363282zm0 0" fill="#728f9c"/><path d="m307.675781 298.640625c0 4.714844-3.824219 8.535156-8.535156 8.535156-4.714844 0-8.535156-3.820312-8.535156-8.535156 0-4.710937 3.820312-8.53125 8.535156-8.53125 4.710937 0 8.535156 3.820313 8.535156 8.53125zm0 0"/><path d="m205.273438 298.640625c0 4.714844-3.820313 8.535156-8.53125 8.535156-4.714844 0-8.535157-3.820312-8.535157-8.535156 0-4.710937 3.820313-8.53125 8.535157-8.53125 4.710937 0 8.53125 3.820313 8.53125 8.53125zm0 0"/><path d="m167.285156 263.558594c4.191406 2.136718 9.324219.472656 11.46875-3.71875 3.554688-6.871094 10.300782-11.519532 17.988282-12.398438 7.683593.882813 14.425781 5.527344 17.988281 12.390625 2.117187 4.210938 7.25 5.90625 11.460937 3.785157 4.210938-2.121094 5.90625-7.253907 3.785156-11.464844-6.441406-12.632813-19.082031-20.914063-33.234374-21.777344-14.15625.867188-26.796876 9.152344-33.238282 21.785156-2.082031 4.195313-.394531 9.28125 3.78125 11.398438zm0 0"/><path d="m111.40625 162.109375c-34.6875 0-45.320312 14.445313-48.816406 19.199219-2.796875 3.796875-1.984375 9.140625 1.816406 11.9375 3.796875 2.792968 9.144531 1.980468 11.9375-1.816406 2.226562-3.039063 9.003906-12.253907 35.0625-12.253907 4.714844 0 8.535156-3.820312 8.535156-8.535156 0-4.710937-3.820312-8.53125-8.535156-8.53125zm0 0"/><path d="m330.109375 324.847656c-26.308594 9.9375-54.066406 15.496094-82.167969 16.460938-28.105468-.964844-55.863281-6.523438-82.167968-16.460938-4.058594-1.625-8.6875.078125-10.722657 3.945313-2.035156 3.867187-.824219 8.644531 2.8125 11.074219.476563.324218 47.410157 32.160156 47.410157 69.707031 0 22.410156 21.460937 34.132812 42.667968 34.132812 21.203125 0 42.664063-11.722656 42.664063-34.132812 0-37.546875 46.933593-69.382813 47.414062-69.707031 3.632813-2.429688 4.847657-7.207032 2.808594-11.074219-2.035156-3.867188-6.664063-5.570313-10.71875-3.945313zm-56.570313 84.726563c0 13.5-16.742187 17.066406-25.597656 17.066406-8.859375 0-25.601562-3.566406-25.601562-17.066406-1.304688-21.621094-10.34375-42.046875-25.460938-57.558594 16.730469 4.011719 33.855469 6.144531 51.0625 6.359375 17.203125-.214844 34.332032-2.347656 51.0625-6.359375-15.121094 15.511719-24.15625 35.9375-25.464844 57.558594zm0 0"/><path d="m269.683594 263.558594c4.195312 2.136718 9.324218.472656 11.46875-3.71875 3.558594-6.871094 10.300781-11.519532 17.988281-12.398438 7.652344.886719 14.363281 5.515625 17.917969 12.347656 1.363281 2.726563 4.078125 4.523438 7.125 4.707032 3.042968.183594 5.953125-1.269532 7.636718-3.816406 1.679688-2.542969 1.878907-5.792969.515626-8.519532-6.433594-12.621094-19.054688-20.90625-33.195313-21.785156-14.171875.851562-26.832031 9.140625-33.28125 21.785156-2.074219 4.203125-.367187 9.296875 3.824219 11.398438zm0 0"/><path d="m384.472656 162.109375c-4.710937 0-8.53125 3.820313-8.53125 8.53125 0 4.714844 3.820313 8.535156 8.53125 8.535156 26.0625 0 32.835938 9.214844 35.066406 12.253907 1.804688 2.457031 4.789063 3.761718 7.820313 3.425781 3.03125-.339844 5.652344-2.265625 6.878906-5.0625 1.222657-2.792969.863281-6.027344-.945312-8.484375-3.5-4.753906-14.132813-19.199219-48.820313-19.199219zm0 0"/><path d="m471.976562 291.992188c6.125-24.171876 18.847657-89.914063-11.09375-130.78125-16.164062-22.050782-41.875-33.238282-76.410156-33.238282-27.296875-.234375-53.664062 9.910156-73.769531 28.375-30.089844-6.953125-50.253906-20.234375-59.734375-39.65625-7.792969-18.898437-8.621094-39.953125-2.335938-59.40625 10.742188 11.519532 27.980469 14.167969 41.6875 6.40625 13.707032-7.761718 20.300782-23.90625 15.949219-39.046875-4.351562-15.136719-18.519531-25.3125-34.253906-24.6093748-15.734375.7031248-28.933594 12.1054688-31.917969 27.5703128-21.339844 7.015625-94.558594 35.824219-94.558594 100.367187 0 1.785156.113282 3.578125.179688 5.359375-11.082031-3.589843-22.664062-5.398437-34.3125-5.359375-34.535156 0-60.246094 11.1875-76.40625 33.28125-29.945312 40.867188-17.21875 106.605469-11.09375 130.78125-15.867188 5.246094-25.601562 21.210938-23 37.71875 2.597656 16.507813 16.765625 28.703125 33.476562 28.820313 16.710938.117187 31.050782-11.878907 33.878907-28.347657 2.832031-16.46875-6.675781-32.566406-22.46875-38.035156 6.648437-17.597656 20.960937-44.75 40.015625-44.75 16.953125-1.363281 33.140625 7.3125 41.394531 22.1875-1.578125 12.324219-4.101563 24.507813-7.554687 36.445313-5.214844 16.953125-7.988282 34.5625-8.242188 52.300781 0 39.125 25.523438 53.484375 48.042969 66.148438 5.46875 3.074218 10.640625 5.976562 15.488281 9.21875 9.140625 6.089843 12.347656 17.125 16.058594 29.867187 6.273437 21.5625 14.0625 48.363281 56.945312 48.363281 42.878906 0 50.671875-26.800781 56.941406-48.339844 3.710938-12.800781 6.921876-23.800781 16.058594-29.867187 4.847656-3.234375 10.019532-6.144531 15.488282-9.214844 22.519531-12.691406 48.042968-27.050781 48.042968-66.175781-.25-17.734375-3.027344-35.339844-8.242187-52.292969-3.449219-11.9375-5.976563-24.121093-7.550781-36.445312 8.25-14.878907 24.4375-23.558594 41.394531-22.195313 18.984375 0 33.332031 27.152344 39.996093 44.707032-15.789062 5.472656-25.292968 21.570312-22.460937 38.035156 2.832031 16.46875 17.171875 28.464844 33.878906 28.347656s30.875-12.3125 33.476563-28.820312c2.601562-16.503907-7.128906-32.464844-22.988282-37.71875zm-198.4375-274.949219c9.425782 0 17.066407 7.640625 17.066407 17.066406s-7.640625 17.066406-17.066407 17.066406c-9.425781 0-17.066406-7.640625-17.066406-17.066406s7.640625-17.066406 17.066406-17.066406zm-110.273437 123.730469c-.441406-4.25-.660156-8.523438-.660156-12.800782 0-44.003906 45.304687-69.007812 70.75-79.582031-5.714844 18.640625-10.921875 48.640625 2.230469 75.691406 10.726562 22.050781 31.375 37.632813 61.496093 46.441407-.175781.21875-.324219.476562-.5.6875-2.964843 3.660156-5.746093 7.464843-8.328125 11.402343l-.15625.214844c-3.039062 1.097656-5.980468 2.449219-8.796875 4.035156-2.769531 1.523438-5.402343 3.28125-7.867187 5.257813l-23.492188 18.796875-23.492187-18.773438c-.914063-.734375-1.945313-1.269531-2.902344-1.9375-1.589844-1.195312-3.246094-2.304687-4.957031-3.320312-2.820313-1.578125-5.761719-2.925781-8.796875-4.035157-.105469-.160156-.230469-.332031-.34375-.496093-.683594-1.039063-1.414063-2.105469-2.175781-3.191407-.441407-.636718-.851563-1.261718-1.339844-1.910156-.640625-.851562-1.347656-1.800781-2.046875-2.714844-1.621094-2.140624-3.355469-4.265624-5.230469-6.484374-.171875-.195313-.316406-.390626-.496094-.589844-1.101562-1.269532-2.285156-2.558594-3.488281-3.804688l-1.152344-1.238281c-1.214843-1.246094-2.476562-2.472656-3.773437-3.703125-.453125-.433594-.902344-.851562-1.375-1.296875-1.3125-1.21875-2.679688-2.414063-4.09375-3.601563-.503906-.425781-1.023438-.851562-1.546875-1.269531-1.441407-1.179687-2.917969-2.328125-4.453125-3.464843-.546875-.402344-1.117188-.792969-1.707032-1.1875-1.578124-1.117188-3.171874-2.226563-4.847656-3.285157-.542968-.347656-1.132812-.664062-1.707031-1.003906-1.542969-.992187-3.085937-1.980469-4.75-2.835937zm-111.589844 183.46875c0 9.425781-7.644531 17.066406-17.070312 17.066406s-17.066407-7.640625-17.066407-17.066406c0-9.425782 7.640626-17.066407 17.066407-17.066407s17.070312 7.640625 17.070312 17.066407zm34.132813-93.867188c-23.476563 0-39.5625 21.664062-49.015625 40.175781-4.976563-27.640625-8.363281-71.492187 11.945312-99.253906 12.800781-17.421875 33.867188-26.253906 62.667969-26.253906 14.199219-.101563 28.222656 3.113281 40.960938 9.382812 2.03125 1 3.984374 2.074219 5.878906 3.195313.648437.375 1.289062.757812 1.921875 1.148437 1.976562 1.238281 3.90625 2.5625 5.734375 3.851563.375.273437.742187.554687 1.109375.851562 6.167969 4.667969 11.808593 9.992188 16.828125 15.882813-.402344 0-.785156.09375-1.1875.125-.914063.078125-1.828125.179687-2.730469.300781-.90625.117188-2.039063.28125-3.046875.46875s-1.792969.347656-2.679688.554688c-.886718.203124-1.945312.476562-2.902343.75-.953125.273437-1.707031.519531-2.609375.855468-.90625.332032-1.851563.65625-2.765625 1.015625-.914063.355469-1.707031.679688-2.507813 1.054688-.804687.378906-1.757812.855469-2.621094 1.265625-.863281.410156-1.605468.851562-2.390624 1.277344-.785157.429687-1.703126.984374-2.472657 1.503906-.769531.519531-1.511719.972656-2.246093 1.484375-.730469.511719-1.558594 1.144531-2.320313 1.707031-.757813.5625-1.40625 1.101562-2.089844 1.707031-.683593.605469-1.441406 1.289063-2.140625 1.945313-.699218.65625-1.296875 1.210937-1.921875 1.851562-.621093.640625-1.320312 1.433594-1.960937 2.167969s-1.171875 1.304687-1.707032 1.996094c-.539062.691406-1.195312 1.570312-1.777343 2.371093-.578125.804688-1.03125 1.402344-1.507813 2.125-.480468.726563-1.058594 1.707032-1.570312 2.5625-.511719.851563-.898438 1.476563-1.296875 2.242188-.480469.898438-.898438 1.828125-1.332031 2.757812-.367188.777344-.75 1.535157-1.074219 2.328126-.410157.980468-.753907 1.996093-1.101563 3.003906-.273437.777344-.582031 1.535156-.855468 2.328125-.324219 1.078125-.578126 2.1875-.851563 3.296875-.1875.75-.410156 1.492187-.5625 2.269531-.257813 1.253906-.410156 2.558594-.582031 3.8125-.09375.648437-.21875 1.28125-.289063 1.9375-.199219 1.96875-.296875 3.945313-.296875 5.921875v6.539062c-11.761718-10.238281-27.070312-15.449218-42.632812-14.507812zm242.261718 179.277344c-5.515624 3.089844-11.207031 6.296875-16.597656 9.890625-14.320312 9.546875-18.917968 25.367187-22.980468 39.320312-6.085938 20.933594-10.480469 36.042969-40.550782 36.042969-30.074218 0-34.46875-15.109375-40.550781-36.042969-4.0625-13.953125-8.660156-29.773437-22.980469-39.320312-5.394531-3.59375-11.09375-6.828125-16.597656-9.890625-21.113281-11.878906-39.339844-22.136719-39.339844-51.277344.265625-16.246094 2.851563-32.367188 7.679688-47.882812 6.152344-20.453126 9.3125-41.691407 9.386718-63.050782v-9.191406c.023438-23.1875 18.8125-41.980469 42.003907-42.007812 2.035156.023437 4.070312.195312 6.082031.519531 2.074219.335937 4.121094.816406 6.128906 1.433593 5.101563 1.5 9.875 3.960938 14.054688 7.253907l28.816406 23.039062c3.117188 2.496094 7.546875 2.496094 10.664062 0l28.785157-23.039062c.089843-.050781.171875-.109375.253906-.171875 4.105469-3.191406 8.773437-5.589844 13.757813-7.074219 2-.613281 4.042968-1.09375 6.109374-1.433594 12.097657-1.949219 24.4375 1.542969 33.722657 9.542969 9.28125 7.996094 14.5625 19.683594 14.421875 31.9375v9.191406c.074218 21.359375 3.238281 42.597656 9.386718 63.050782 4.828126 15.515624 7.417969 31.636718 7.679688 47.882812 0 29.140625-18.226562 39.398438-39.335938 51.277344zm82.003907-179.277344c-15.574219-.949219-30.898438 4.261719-42.667969 14.507812v-6.648437c0-1.980469-.097656-3.957031-.296875-5.921875-.070313-.65625-.195313-1.289062-.289063-1.9375-.171874-1.28125-.328124-2.5625-.582031-3.816406-.152343-.773438-.375-1.515625-.5625-2.269532-.265625-1.109374-.519531-2.21875-.855469-3.292968-.246093-.792969-.554687-1.554688-.851562-2.328125-.351562-1.007813-.691406-2.023438-1.101562-3.003907-.324219-.792968-.707032-1.546874-1.066407-2.3125-.433593-.941406-.851562-1.878906-1.339843-2.78125-.402344-.761718-.851563-1.488281-1.296876-2.230468-.511718-.851563-1.015624-1.707032-1.570312-2.558594s-.988281-1.417969-1.5-2.117188c-.515625-.699218-1.164062-1.613281-1.792969-2.386718-.632812-.777344-1.128906-1.324219-1.707031-1.980469-.582031-.65625-1.296875-1.476563-1.980469-2.175781-.683593-.699219-1.253906-1.238282-1.902343-1.84375-.648438-.605469-1.417969-1.332032-2.160157-1.964844-.742187-.628906-1.371093-1.117188-2.074219-1.703125-.699218-.589844-1.535156-1.1875-2.335937-1.707031-.804687-.523438-1.46875-.992188-2.21875-1.46875-.75-.476563-1.648437-1.03125-2.5-1.519532-.855469-.488281-1.5625-.851562-2.363281-1.261718-.804688-.410156-1.707032-.855469-2.65625-1.28125-.945313-.425782-1.636719-.707032-2.472656-1.039063-.835938-.335937-1.851563-.710937-2.800782-1.027343-.945312-.3125-1.707031-.554688-2.558594-.800782-.855468-.246094-1.945312-.527344-2.9375-.757812-.988281-.230469-1.757812-.394532-2.652343-.554688-.894531-.164062-2.039063-.34375-3.0625-.472656-1.023438-.125-1.800781-.21875-2.714844-.296875-.332031 0-.65625-.085937-.988281-.109375 2.207031-2.5625 4.394531-5.179688 6.824218-7.511719l.0625-.085937c17.304688-17.332032 40.878907-26.953125 65.371094-26.671875 28.785156 0 49.84375 8.820312 62.617188 26.222656 20.320312 27.6875 16.949218 71.585937 11.992187 99.25-9.464843-18.5-25.542969-40.140625-49.007812-40.140625zm51.199219 110.933594c-9.425782 0-17.066407-7.640625-17.066407-17.066406 0-9.425782 7.640625-17.066407 17.066407-17.066407 9.425781 0 17.066406 7.640625 17.066406 17.066407 0 9.425781-7.640625 17.066406-17.066406 17.066406zm0 0"/><path d="m137.007812 79c2.90625.003906 5.613282-1.472656 7.183594-3.914062 6.667969-10.175782 14.75-19.347657 24.003906-27.238282 2.414063-1.96875 3.5625-5.089844 3.003907-8.148437-.558594-3.0625-2.738281-5.574219-5.691407-6.5625-2.949218-.984375-6.203124-.285157-8.488281 1.824219-10.484375 8.953124-19.640625 19.355468-27.1875 30.890624-1.691406 2.625-1.8125 5.964844-.316406 8.703126 1.496094 2.742187 4.371094 4.445312 7.492187 4.445312zm0 0"/></svg>